<svg xmlns="http://www.w3.org/2000/svg" width="900" height="520" viewBox="0 0 900 520" role="img">
<title>Fused RHT AdamW convergence</title><desc>Matched 120-step teacher–student SwiGLU regression · H100 NVL</desc>
<rect width="100%" height="100%" rx="16" fill="#0f151f"/>
<text x="54" y="42" fill="#edf2fa" font-family="Inter,system-ui,sans-serif" font-size="20" font-weight="700">Fused RHT AdamW convergence</text>
<text x="54" y="65" fill="#8e9bb0" font-family="Inter,system-ui,sans-serif" font-size="12">Matched 120-step teacher–student SwiGLU regression · H100 NVL</text>
<line x1="72" y1="462.00" x2="872" y2="462.00" stroke="#273246" stroke-dasharray="3 5"/><text x="62" y="466.00" text-anchor="end" fill="#8e9bb0" font-family="ui-monospace,monospace" font-size="11">10^-3</text><line x1="72" y1="100.00" x2="872" y2="100.00" stroke="#273246" stroke-dasharray="3 5"/><text x="62" y="104.00" text-anchor="end" fill="#8e9bb0" font-family="ui-monospace,monospace" font-size="11">10^-2</text><text x="72.00" y="495" text-anchor="middle" fill="#8e9bb0" font-family="Inter,system-ui,sans-serif" font-size="11">1</text><text x="199.73" y="495" text-anchor="middle" fill="#8e9bb0" font-family="Inter,system-ui,sans-serif" font-size="11">20</text><text x="334.18" y="495" text-anchor="middle" fill="#8e9bb0" font-family="Inter,system-ui,sans-serif" font-size="11">40</text><text x="468.64" y="495" text-anchor="middle" fill="#8e9bb0" font-family="Inter,system-ui,sans-serif" font-size="11">60</text><text x="603.09" y="495" text-anchor="middle" fill="#8e9bb0" font-family="Inter,system-ui,sans-serif" font-size="11">80</text><text x="737.55" y="495" text-anchor="middle" fill="#8e9bb0" font-family="Inter,system-ui,sans-serif" font-size="11">100</text><text x="872.00" y="495" text-anchor="middle" fill="#8e9bb0" font-family="Inter,system-ui,sans-serif" font-size="11">120</text><text x="450.0" y="513" text-anchor="middle" fill="#8e9bb0" font-family="Inter,system-ui,sans-serif" font-size="12">Optimizer step</text><text transform="translate(17 281.0) rotate(-90)" text-anchor="middle" fill="#8e9bb0" font-family="Inter,system-ui,sans-serif" font-size="12">MSE loss (log scale)</text><polyline points="72.00,123.90 78.72,119.61 85.45,127.01 92.17,128.21 98.89,132.07 105.61,130.46 112.34,133.61 119.06,132.37 125.78,182.35 132.50,167.98 139.23,170.33 145.95,166.95 152.67,169.32 159.39,166.69 166.12,166.75 172.84,167.54 179.56,213.77 186.29,200.59 193.01,202.53 199.73,201.01 206.45,201.39 213.18,199.29 219.90,199.93 226.62,198.92 233.34,241.18 240.07,229.71 246.79,231.56 253.51,230.08 260.24,230.03 266.96,228.79 273.68,229.53 280.40,229.69 287.13,263.37 293.85,255.49 300.57,256.83 307.29,255.38 314.02,257.20 320.74,254.20 327.46,257.62 334.18,255.54 340.91,282.72 347.63,276.60 354.35,279.88 361.08,278.17 367.80,278.70 374.52,278.46 381.24,279.60 387.97,280.33 394.69,301.83 401.41,295.80 408.13,298.33 414.86,298.15 421.58,299.17 428.30,297.01 435.03,299.06 441.75,298.81 448.47,316.24 455.19,312.56 461.92,314.10 468.64,313.78 475.36,314.03 482.08,313.72 488.81,314.13 495.53,313.34 502.25,329.30 508.97,326.23 515.70,327.63 522.42,327.17 529.14,326.22 535.87,324.60 542.59,329.75 549.31,327.78 556.03,339.60 562.76,335.68 569.48,338.12 576.20,337.68 582.92,339.68 589.65,337.92 596.37,340.86 603.09,338.10 609.82,348.20 616.54,346.74 623.26,349.70 629.98,347.45 636.71,347.63 643.43,348.74 650.15,348.07 656.87,348.85 663.60,354.32 670.32,352.61 677.04,355.70 683.76,355.38 690.49,354.73 697.21,351.67 703.93,356.47 710.66,354.48 717.38,361.39 724.10,357.18 730.82,361.36 737.55,361.05 744.27,361.74 750.99,357.10 757.71,361.18 764.44,361.64 771.16,367.54 777.88,363.28 784.61,365.87 791.33,363.26 798.05,365.20 804.77,364.52 811.50,365.39 818.22,364.75 824.94,370.65 831.66,365.00 838.39,368.97 845.11,369.03 851.83,368.24 858.55,365.72 865.28,369.91 872.00,365.57" fill="none" stroke="#70a5ff" stroke-width="2.4" stroke-linejoin="round"/><line x1="390" y1="84" x2="412" y2="84" stroke="#70a5ff" stroke-width="3"/><text x="418" y="88" fill="#cbd5e5" font-family="Inter,system-ui,sans-serif" font-size="11">Mapped RHT + PyTorch AdamW</text><polyline points="72.00,123.90 78.72,119.61 85.45,127.01 92.17,128.21 98.89,132.08 105.61,130.51 112.34,133.61 119.06,132.40 125.78,182.54 132.50,167.86 139.23,170.31 145.95,167.02 152.67,169.01 159.39,166.71 166.12,166.45 172.84,166.85 179.56,214.20 186.29,200.99 193.01,203.17 199.73,200.34 206.45,201.53 213.18,199.65 219.90,200.21 226.62,198.40 233.34,240.58 240.07,230.04 246.79,231.69 253.51,229.47 260.24,230.25 266.96,227.94 273.68,229.27 280.40,229.26 287.13,262.09 293.85,254.96 300.57,256.79 307.29,255.41 314.02,257.01 320.74,254.72 327.46,257.67 334.18,257.24 340.91,282.61 347.63,277.83 354.35,278.95 361.08,278.76 367.80,280.36 374.52,277.83 381.24,279.01 387.97,279.11 394.69,301.05 401.41,296.56 408.13,298.01 414.86,297.34 421.58,298.63 428.30,296.88 435.03,299.03 441.75,297.99 448.47,316.91 455.19,312.53 461.92,313.49 468.64,314.76 475.36,315.58 482.08,314.10 488.81,314.64 495.53,314.98 502.25,330.84 508.97,325.07 515.70,328.19 522.42,327.41 529.14,326.70 535.87,326.13 542.59,328.26 549.31,328.52 556.03,339.57 562.76,337.85 569.48,339.09 576.20,339.03 582.92,339.47 589.65,337.18 596.37,339.64 603.09,338.64 609.82,349.00 616.54,344.23 623.26,349.64 629.98,347.37 636.71,348.20 643.43,347.35 650.15,348.77 656.87,347.93 663.60,355.14 670.32,352.00 677.04,353.26 683.76,354.33 690.49,356.31 697.21,352.65 703.93,355.52 710.66,354.40 717.38,362.08 724.10,357.93 730.82,361.57 737.55,361.41 744.27,361.55 750.99,358.91 757.71,362.29 764.44,359.90 771.16,366.36 777.88,363.75 784.61,365.63 791.33,364.00 798.05,364.69 804.77,363.78 811.50,365.44 818.22,364.91 824.94,370.33 831.66,366.67 838.39,369.43 845.11,368.10 851.83,370.21 858.55,365.28 865.28,369.57 872.00,368.07" fill="none" stroke="#51d6ca" stroke-width="2.4" stroke-linejoin="round"/><line x1="640" y1="84" x2="662" y2="84" stroke="#51d6ca" stroke-width="3"/><text x="668" y="88" fill="#cbd5e5" font-family="Inter,system-ui,sans-serif" font-size="11">Fused inverse-RHT + AdamW</text></svg>
